<?xml version="1.0" encoding="UTF-8"?> <svg xmlns="http://www.w3.org/2000/svg" xmlns:xlink="http://www.w3.org/1999/xlink" width="419px" height="220px" viewBox="0 0 419 220" version="1.1"><title>Group 3</title><g id="Page-1" stroke="none" stroke-width="1" fill="none" fill-rule="evenodd"><g id="Artboard" transform="translate(-810.000000, -189.000000)"><g id="Group-3" transform="translate(810.000000, 189.000000)"><circle id="Oval-Copy" fill-opacity="0.15" fill="#29BEC6" cx="346" cy="73" r="73"></circle><polygon id="1" fill="#2866AF" fill-rule="nonzero" points="41.0644531 65 41.0644531 62.7851562 37.1269531 62.2929688 37.1269531 39.40625 29.6386719 41.0234375 29.6386719 43.1855469 33.6640625 43.1152344 33.6640625 62.2929688 29.7089844 62.7851562 29.7089844 65"></polygon><path d="M92.0002,86.0002 C92.0002,91.5242 87.5242,96.0002 82.0002,96.0002 C76.4762,96.0002 72.0002,91.5242 72.0002,86.0002 C72.0002,80.4762 76.4762,76.0002 82.0002,76.0002 C87.5242,76.0002 92.0002,80.4762 92.0002,86.0002 Z" id="Stroke-1" stroke="#33BBED" stroke-width="2" stroke-linejoin="round"></path><line x1="82.0002" y1="81.0002" x2="82.0002" y2="91.0002" id="Stroke-3" stroke="#33BBED" stroke-width="2" stroke-linecap="round" stroke-linejoin="round"></line><line x1="87.0002" y1="86.0002" x2="77.0002" y2="86.0002" id="Stroke-5" stroke="#33BBED" stroke-width="2" stroke-linecap="round" stroke-linejoin="round"></line><line x1="70.0002" y1="78.0002" x2="70.0002" y2="72.3922" id="Stroke-7" stroke="#33BBED" stroke-width="2" stroke-linecap="round" stroke-linejoin="round"></line><path d="M60.0002,72.3918 L60.0002,77.9998 L49.9822,81.5778 C47.5942,82.4318 46.0002,84.6938 46.0002,87.2278 L46.0002,91.9998 L68.0002,91.9998" id="Stroke-9" stroke="#33BBED" stroke-width="2" stroke-linecap="round" stroke-linejoin="round"></path><circle id="Oval-Copy-2" fill-opacity="0.1" fill="#29BEC6" cx="196" cy="156" r="64"></circle><circle id="Oval" fill-opacity="0.05" fill="#29BEC6" cx="55" cy="66" r="55"></circle><path d="M75.0002,62.0002 C75.0002,68.6262 70.5222,74.0002 65.0002,74.0002 C59.4762,74.0002 55.0002,68.6262 55.0002,62.0002 C55.0002,55.3742 59.4762,50.0002 65.0002,50.0002 C70.5222,50.0002 75.0002,55.3742 75.0002,62.0002 Z" id="Stroke-11" stroke="#33BBED" stroke-width="2" stroke-linejoin="round"></path><path d="M74.9064,60.9064 C74.5704,60.9484 74.3384,60.9344 74.0004,61.0004 C70.5944,61.6564 68.4064,60.4224 66.5324,57.1404 C65.4064,59.2964 61.8884,61.0004 59.0004,61.0004 C57.5784,61.0004 56.3544,60.7084 55.1284,60.0684" id="Stroke-13" stroke="#33BBED" stroke-width="2" stroke-linejoin="round"></path><path d="M179.34082,144 L179.34082,138.357422 L176.405273,138.357422 L176.124023,141.292969 L167.036133,141.292969 L167.000977,141.205078 L173.733398,133.875 C175.233398,132.257812 176.396484,130.751953 177.222656,129.357422 C178.048828,127.962891 178.461914,126.568359 178.461914,125.173828 C178.461914,123.099609 177.779297,121.391602 176.414062,120.049805 C175.048828,118.708008 173.211914,118.037109 170.90332,118.037109 C168.208008,118.037109 166.101562,118.787109 164.583984,120.287109 C163.066406,121.787109 162.336914,123.638672 162.395508,125.841797 L162.395508,125.841797 L162.430664,125.947266 L165.75293,125.947266 C165.75293,124.294922 166.168945,123.017578 167.000977,122.115234 C167.833008,121.212891 169.133789,120.761719 170.90332,120.761719 C172.133789,120.761719 173.124023,121.198242 173.874023,122.071289 C174.624023,122.944336 174.999023,124.019531 174.999023,125.296875 C174.999023,126.328125 174.732422,127.335938 174.199219,128.320312 C173.666016,129.304688 172.649414,130.634766 171.149414,132.310547 L171.149414,132.310547 L162.764648,141.626953 L162.764648,144 L179.34082,144 Z" id="2" fill="#2866AF" fill-rule="nonzero"></path><polygon id="Stroke-1" stroke="#33BBED" stroke-width="2" stroke-linecap="round" stroke-linejoin="round" points="192 183 226 183 226 137 192 137"></polygon><path d="M192,137 L188,137 C186.9,137 186,137.9 186,139 L186,181 C186,182.1 186.9,183 188,183 L192,183" id="Stroke-3" stroke="#33BBED" stroke-width="2" stroke-linecap="round" stroke-linejoin="round"></path><path d="M211,160 L211,163 L216.076,164.452 C217.134,164.754 218,165.9 218,167 L218,173 L198,173 L198,167 C198,165.9 198.866,164.754 199.922,164.452 L205,163 L205,160" id="Stroke-4" stroke="#33BBED" stroke-width="2" stroke-linejoin="round"></path><path d="M214,154.541 C214,158.157 211.312,161.085 208,161.085 C204.686,161.085 202,158.157 202,154.541 C202,150.929 204.686,147.999 208,147.999 C211.312,147.999 214,150.929 214,154.541 Z" id="Stroke-5" stroke="#33BBED" stroke-width="2" stroke-linejoin="round"></path><path d="M213.9374,153.3516 C212.9374,154.3516 210.0774,154.3476 208.9994,152.3416 C206.9994,154.3416 203.7494,154.3416 202.1314,153.1996" id="Stroke-6" stroke="#33BBED" stroke-width="2" stroke-linejoin="round"></path><path d="M226,140 L228,140 C230.2,140 232,141.8 232,144 L232,150 L226,150" id="Stroke-7" stroke="#33BBED" stroke-width="2" stroke-linejoin="round"></path><polyline id="Stroke-8" stroke="#33BBED" stroke-width="2" stroke-linejoin="round" points="226 150 232 150 232 160 226 160"></polyline><polyline id="Stroke-9" stroke="#33BBED" stroke-width="2" stroke-linejoin="round" points="226 160 232 160 232 170 226 170"></polyline><path d="M226,170 L232,170 L232,176 C232,178.2 230.2,180 228,180 L226,180" id="Stroke-10" stroke="#33BBED" stroke-width="2" stroke-linejoin="round"></path><path d="M323.595703,60.3691406 C325.974609,60.3691406 327.928711,59.7011719 329.458008,58.3652344 C330.987305,57.0292969 331.751953,55.1953125 331.751953,52.8632812 C331.751953,51.5273438 331.432617,50.3203125 330.793945,49.2421875 C330.155273,48.1640625 329.068359,47.3730469 327.533203,46.8691406 C328.810547,46.3183594 329.768555,45.5185547 330.407227,44.4697266 C331.045898,43.4208984 331.365234,42.3691406 331.365234,41.3144531 C331.365234,38.9824219 330.662109,37.1865234 329.255859,35.9267578 C327.849609,34.6669922 325.962891,34.0371094 323.595703,34.0371094 C321.240234,34.0371094 319.333008,34.7138672 317.874023,36.0673828 C316.415039,37.4208984 315.714844,39.0644531 315.773438,40.9980469 L315.773438,40.9980469 L315.808594,41.1035156 L319.130859,41.1035156 C319.130859,39.7910156 319.538086,38.7392578 320.352539,37.9482422 C321.166992,37.1572266 322.248047,36.7617188 323.595703,36.7617188 C325.013672,36.7617188 326.085938,37.1425781 326.8125,37.9042969 C327.539063,38.6660156 327.902344,39.7792969 327.902344,41.2441406 C327.902344,42.6152344 327.583008,43.6845703 326.944336,44.4521484 C326.305664,45.2197266 325.21875,45.6035156 323.683594,45.6035156 L323.683594,45.6035156 L320.660156,45.6035156 L320.660156,48.3105469 L323.683594,48.3105469 C325.277344,48.3105469 326.443359,48.6855469 327.181641,49.4355469 C327.919922,50.1855469 328.289063,51.3515625 328.289063,52.9335938 C328.289063,54.4921875 327.873047,55.6699219 327.041016,56.4667969 C326.208984,57.2636719 325.060547,57.6621094 323.595703,57.6621094 C322.154297,57.6621094 321.020508,57.2636719 320.194336,56.4667969 C319.368164,55.6699219 318.955078,54.5976562 318.955078,53.25 L318.955078,53.25 L315.650391,53.25 L315.597656,53.3554688 C315.539063,55.5117188 316.271484,57.2197266 317.794922,58.4794922 C319.318359,59.7392578 321.251953,60.3691406 323.595703,60.3691406 Z" id="3" fill="#2866AF" fill-rule="nonzero"></path><polyline id="Stroke-1" stroke="#33BBED" stroke-width="2" stroke-linecap="round" stroke-linejoin="round" points="377 67.0400253 377 96.0000253 339 96.0000253 339 54.0000253 371 54.0000253"></polyline><path d="M366.6572,69.8106253 L361.0012,72.6386253 L363.8292,66.9806253 L381.5572,50.6146253 C383.4272,48.7426253 386.2572,51.5706253 384.3872,53.4426253 L366.6572,69.8106253 Z" id="Stroke-3" stroke="#33BBED" stroke-width="2" stroke-linecap="round" stroke-linejoin="round"></path><line x1="378.7304" y1="53.4424253" x2="381.5564" y2="56.2724253" id="Stroke-5" stroke="#33BBED" stroke-width="2" stroke-linecap="round" stroke-linejoin="round"></line><line x1="359.001" y1="61.0390253" x2="345.999" y2="61.0390253" id="Stroke-7" stroke="#33BBED" stroke-width="2" stroke-linecap="round" stroke-linejoin="round"></line><line x1="359.001" y1="66.8388253" x2="345.999" y2="66.8388253" id="Stroke-9" stroke="#33BBED" stroke-width="2" stroke-linecap="round" stroke-linejoin="round"></line><line x1="361.001" y1="72.6388253" x2="345.999" y2="72.6388253" id="Stroke-11" stroke="#33BBED" stroke-width="2" stroke-linecap="round" stroke-linejoin="round"></line><line x1="369.997" y1="78.4386253" x2="345.997" y2="78.4386253" id="Stroke-13" stroke="#33BBED" stroke-width="2" stroke-linecap="round" stroke-linejoin="round"></line><line x1="369.997" y1="84.2384253" x2="345.997" y2="84.2384253" id="Stroke-15" stroke="#33BBED" stroke-width="2" stroke-linecap="round" stroke-linejoin="round"></line><line x1="369.997" y1="90.0382253" x2="345.997" y2="90.0382253" id="Stroke-17" stroke="#33BBED" stroke-width="2" stroke-linecap="round" stroke-linejoin="round"></line><path d="M152,147.189799 C111.559146,114.010968 87.4136135,125.068242 47,171" id="Path-3" stroke="#979797" stroke-width="4" stroke-linecap="round" stroke-linejoin="round" stroke-dasharray="8,8" transform="translate(99.500000, 149.500000) scale(1, -1) rotate(-26.000000) translate(-99.500000, -149.500000) "></path><path d="M299.638796,93.1414585 C262.27915,74.6230415 239.973277,80.7945432 202.638796,106.430873" id="Path-3-Copy" stroke="#979797" stroke-width="4" stroke-linecap="round" stroke-linejoin="round" stroke-dasharray="8,8" transform="translate(251.138796, 94.430873) rotate(-22.000000) translate(-251.138796, -94.430873) "></path><polyline id="Path" stroke="#979797" stroke-width="4" stroke-linecap="round" stroke-linejoin="round" transform="translate(158.209902, 170.883650) scale(1, -1) rotate(15.000000) translate(-158.209902, -170.883650) " points="147.341958 182.7673 169.419804 171.352794 147 159"></polyline><polyline id="Path-Copy" stroke="#979797" stroke-width="4" stroke-linecap="round" stroke-linejoin="round" points="293.341958 86.7673001 315.419804 75.3527942 293 63"></polyline></g></g></g></svg> 