<?xml version="1.0" encoding="UTF-8"?> <svg xmlns="http://www.w3.org/2000/svg" xmlns:xlink="http://www.w3.org/1999/xlink" width="40px" height="40px" viewBox="0 0 40 40"><!-- Generator: Sketch 54.1 (76490) - https://sketchapp.com --><title>Appointment reminders icon</title><desc>Created with Sketch.</desc><g id="Appointment-reminders-icon" stroke="none" stroke-width="1" fill="none" fill-rule="evenodd"><g id="Group-16" transform="translate(3.000000, 3.000000)" stroke="#34BBED" stroke-linecap="round" stroke-linejoin="round" stroke-width="2"><g id="Group-6"><polyline id="Stroke-1" points="6.37485833 3.54180833 0.708191667 3.54180833 0.708191667 33.2918083 33.291525 33.2918083 33.291525 3.54180833 27.6248583 3.54180833"></polyline><polygon id="Stroke-3" points="6.375 6.375 10.625 6.375 10.625 0.708333333 6.375 0.708333333"></polygon><polygon id="Stroke-5" points="23.375 6.375 27.625 6.375 27.625 0.708333333 23.375 0.708333333"></polygon></g><path d="M10.6248583,3.54180833 L23.3748583,3.54180833" id="Stroke-7"></path><path d="M0.708191667,10.6251417 L33.291525,10.6251417" id="Stroke-8"></path><g id="Group" transform="translate(9.000000, 14.000000)"><path d="M0.5,0 L0.5,16" id="Stroke-10"></path><path d="M8.5,0 L8.5,16" id="Stroke-11"></path><path d="M16.5,0 L16.5,16" id="Stroke-12"></path></g><path d="M4,16.7083333 L30.9166667,16.7083333" id="Stroke-13"></path><path d="M3.541525,21.958475 L30.4581917,21.958475" id="Stroke-14"></path><path d="M3.541525,27.6251417 L30.4581917,27.6251417" id="Stroke-15"></path></g><rect id="Rectangle" x="0" y="0" width="40" height="40"></rect></g></svg> 