<?xml version="1.0" encoding="UTF-8"?> <svg xmlns="http://www.w3.org/2000/svg" xmlns:xlink="http://www.w3.org/1999/xlink" width="40px" height="40px" viewBox="0 0 40 40" version="1.1"><title>Automate reply processes icon</title><g id="Automate-reply-processes-icon" stroke="none" stroke-width="1" fill="none" fill-rule="evenodd" stroke-linejoin="round"><g id="Group-4" transform="translate(2.000000, 5.000000)" stroke="#33BBED" stroke-width="2"><g id="Group" transform="translate(10.000000, 6.000000)"><path d="M10.5573599,17.1599999 L10.5573599,14.8777199 C11.8773599,14.5846799 12.4093199,14.0843999 13.1141999,13.4389199 L15.1760399,14.5846799 L17.1547199,11.1553199 L15.1707599,10.0121999 C15.3925199,9.00899995 15.3700799,8.07311996 15.1667999,7.14779996 L17.1362399,6.00467997 L15.1377599,2.57531999 L13.1128799,3.72107998 C12.4093199,3.07559998 11.8773599,2.57663999 10.5573599,2.28227999 L10.5573599,0 L6.59735996,0 L6.59735996,2.28227999 C5.27735997,2.57663999 4.74539997,3.07559998 4.04183998,3.72107998 L2.01695999,2.57531999 L0.0184799999,6.00467997 L1.98791999,7.14779996 C1.78463999,8.07311996 1.76219999,9.00899995 1.98395999,10.0121999 L-1.37561073e-13,11.1553199 L1.97867999,14.5846799 L4.04051998,13.4389199 C4.74539997,14.0843999 5.27735997,14.5846799 6.59735996,14.8777199 L6.59735996,17.1599999 L10.5573599,17.1599999 Z" id="Stroke-3" transform="translate(8.577360, 8.580000) scale(-1, 1) translate(-8.577360, -8.580000) "></path><path d="M11.2173599,8.57999995 C11.2173599,10.0372799 10.0359599,11.2199999 8.57735995,11.2199999 C7.12139996,11.2199999 5.93735997,10.0372799 5.93735997,8.57999995 C5.93735997,7.12271996 7.12139996,5.93999997 8.57735995,5.93999997 C10.0359599,5.93999997 11.2173599,7.12271996 11.2173599,8.57999995 Z" id="Stroke-7" transform="translate(8.577360, 8.580000) scale(-1, 1) translate(-8.577360, -8.580000) "></path></g><g id="Group-9" stroke-linecap="round"><g id="Group-2"><polyline id="Stroke-1" transform="translate(3.720000, 17.321165) rotate(-5.000000) translate(-3.720000, -17.321165) " points="0.930000007 15.4611655 3.52537052 19.1811655 6.51000005 15.7408378"></polyline><path d="M3.96134668,18.7947614 C1.71454102,10.4389716 7.33241077,2.23890101 15.1491726,0.394227366 C20.5497199,-0.884039067 25.957112,1.03079378 29.3932017,4.91350668" id="Stroke-7"></path></g><g id="Group-3" transform="translate(8.000000, 10.000000)"><polyline id="Stroke-3" transform="translate(24.591477, 2.790000) rotate(-7.000000) translate(-24.591477, -2.790000) " points="27.3814767 4.65000004 24.7870374 0.930000007 21.8014766 4.37032774"></polyline><path d="M24.7080174,2.41012129 C26.1351583,9.95309108 20.8184597,17.3471865 13.5698164,19.0583865 C8.51493142,20.2545153 3.44635689,18.6494097 0,15.2526776" id="Stroke-5"></path></g></g></g></g></svg> 