<?xml version="1.0" encoding="UTF-8"?> <svg xmlns="http://www.w3.org/2000/svg" xmlns:xlink="http://www.w3.org/1999/xlink" width="34px" height="48px" viewBox="0 0 34 48" version="1.1"><title>Group 10</title><g id="Page-1" stroke="none" stroke-width="1" fill="none" fill-rule="evenodd" stroke-linejoin="round"><g id="Artboard" transform="translate(-460.000000, -883.000000)" stroke="#33BBED" stroke-width="2"><g id="Group-10" transform="translate(461.000000, 884.000000)"><g id="Group-7"><path d="M11.7108682,3.132 C12.2708682,1.274 14.0168682,1.17239551e-13 16.0008682,1.17239551e-13 C17.9828682,1.17239551e-13 19.7288682,1.274 20.2888682,3.132 L20.3188682,3.226 L20.3988682,3.166 C21.9688682,1.986 24.1488682,1.956 25.7528682,3.092 C27.3568682,4.232 28.0028682,6.264 27.3368682,8.088 L27.3028682,8.18 L27.4048682,8.178 C29.3868682,8.124 31.1688682,9.35 31.7808682,11.19 C32.3928682,13.032 31.6908682,15.046 30.0568682,16.14 L29.9708682,16.196 L30.0568682,16.252 C31.6908682,17.346 32.3928682,19.36 31.7808682,21.202 C31.1688682,23.04 29.3868682,24.268 27.4048682,24.216 L27.3028682,24.212 L27.3368682,24.306 C28.0028682,26.128 27.3568682,28.164 25.7528682,29.3 C24.1488682,30.436 21.9688682,30.406 20.3988682,29.226 L20.3188682,29.166 L20.2888682,29.26 C19.7288682,31.12 17.9828682,32.394 16.0008682,32.394 C14.0168682,32.394 12.2708682,31.12 11.7108682,29.26 L11.6808682,29.166 L11.6008682,29.226 C10.0308682,30.406 7.85086818,30.436 6.24886818,29.3 C4.64286818,28.164 3.99886818,26.128 4.66286818,24.306 L4.69686818,24.212 L4.59486818,24.216 C2.61286818,24.268 0.832868183,23.04 0.218868183,21.202 C-0.393131817,19.36 0.308868183,17.346 1.94286818,16.252 L2.02886818,16.196 L1.94286818,16.14 C0.308868183,15.046 -0.393131817,13.032 0.218868183,11.19 C0.832868183,9.35 2.61286818,8.124 4.59486818,8.178 L4.69686818,8.18 L4.66286818,8.088 C3.99886818,6.264 4.64286818,4.232 6.24886818,3.092 C7.85086818,1.956 10.0308682,1.986 11.6008682,3.166 L11.6808682,3.226 L11.7108682,3.132 Z" id="Stroke-1"></path><polyline id="Stroke-3" points="23.9998682 33.0002 23.9998682 46.0002 15.9998682 38.0002 7.99986818 46.0002 7.99986818 33.0002"></polyline><polygon id="Stroke-5" points="15.9998682 6.0002 18.9998682 12.0002 24.9998682 12.0002 19.9998682 17.0002 21.9998682 24.0002 15.9998682 20.2482 9.99986818 24.0002 11.9998682 17.0002 6.99986818 12.0002 12.9998682 12.0002"></polygon></g></g></g></g></svg> 