<?xml version="1.0" encoding="UTF-8"?> <svg xmlns="http://www.w3.org/2000/svg" xmlns:xlink="http://www.w3.org/1999/xlink" width="40px" height="40px" viewBox="0 0 40 40" version="1.1"><title>Inbound messaging icon</title><g id="Inbound-messaging-icon" stroke="none" stroke-width="1" fill="none" fill-rule="evenodd" stroke-linejoin="round"><g id="Group-9" transform="translate(2.000000, 2.000000)" stroke="#33BBED" stroke-width="2"><polyline id="Stroke-1" stroke-linecap="round" points="22.5 27.01755 26.25 30.76755 30 27.01755"></polyline><g id="Group-8" transform="translate(0.000000, 0.017550)"><path d="M17.25,26.25 C17.25,21.2805 21.2805,17.25 26.25,17.25 C31.2195,17.25 35.25,21.2805 35.25,26.25 C35.25,31.2195 31.2195,35.25 26.25,35.25 C21.2805,35.25 17.25,31.2195 17.25,26.25 Z" id="Stroke-2"></path><line x1="26.25" y1="21.75" x2="26.25" y2="30.75" id="Stroke-4" stroke-linecap="round"></line><path d="M14.25,26.1357 C12.9195,26.0217 11.5785,25.8102 10.5,25.4817 L2.25,29.2317 L5.25,22.4817 C2.3565,20.1672 0.75,17.0472 0.75,13.4787 C0.75,6.4407 7.746,0.7317 16.377,0.7317 C25.008,0.7317 32.25,6.4407 32.25,13.4817 C32.25,13.9902 32.2125,14.4912 32.142,14.9847" id="Stroke-6" stroke-linecap="round"></path></g></g></g></svg> 