<?xml version="1.0" encoding="UTF-8"?> <svg xmlns="http://www.w3.org/2000/svg" xmlns:xlink="http://www.w3.org/1999/xlink" width="40px" height="40px" viewBox="0 0 40 40" version="1.1"><title>Integrates into your software icon</title><g id="Integrates-into-your-software-icon" stroke="none" stroke-width="1" fill="none" fill-rule="evenodd" stroke-linejoin="round"><g id="Group-2" transform="translate(19.357400, 20.250450) scale(-1, -1) translate(-19.357400, -20.250450) translate(2.857400, 2.750450)" stroke="#33BBED" stroke-width="2"><path d="M21.4185,20.46345 L23.784,19.09695 L20.784,13.90095 L18.423,15.26445 C17.4045,14.34795 16.2,13.65795 14.892,13.23345 L14.892,10.49895 L8.892,10.49895 L8.892,13.23045 C7.548,13.66545 6.354,14.36445 5.358,15.26445 L3,13.90095 L4.54747351e-13,19.09695 L2.367,20.46495 C2.0865,21.76995 2.07,23.14995 2.367,24.53445 L4.54747351e-13,25.90095 L3,31.09695 L5.361,29.73495 C6.3795,30.65295 7.5855,31.34145 8.892,31.76595 L8.892,34.49895 L14.892,34.49895 L14.892,31.76895 C16.236,31.33545 17.4315,30.63645 18.426,29.73645 L20.784,31.09695 L23.784,25.90095 L21.4185,24.53595 C21.699,23.22945 21.714,21.84945 21.4185,20.46345 Z" id="Stroke-3"></path><g id="Group" transform="translate(18.142600, 0.000000)"><path d="M11.679,5.5455 L13.1895,4.6725 L11.6895,2.0745 L10.179,2.9475 C9.6015,2.4015 8.904,1.974 8.094,1.7325 L8.094,0 L5.094,0 L5.094,1.734 C4.311,1.968 3.5985,2.382 3.003,2.943 L1.5,2.0745 L-2.5313085e-13,4.6725 L1.5,5.5395 C1.3035,6.3615 1.323,7.1805 1.5075,7.953 L-2.5313085e-13,8.8245 L1.5,11.4225 L3.0075,10.5525 C3.585,11.0985 4.284,11.5275 5.094,11.769 L5.094,13.5 L8.094,13.5 L8.094,11.766 C8.8785,11.5305 9.591,11.1165 10.1865,10.5555 L11.6895,11.4225 L13.1895,8.8245 L11.688,7.9575 C11.8815,7.1355 11.8635,6.318 11.679,5.5455 Z" id="Stroke-7"></path><line x1="3.87670516" y1="6.91848465" x2="8.20807601" y2="6.92160465" id="Stroke-3" stroke-linecap="round" transform="translate(6.208076, 6.721605) scale(-1, 1) rotate(45.000000) translate(-6.208076, -6.721605) "></line><polyline id="Stroke-5" stroke-linecap="round" transform="translate(5.640184, 7.567927) scale(-1, 1) rotate(45.000000) translate(-5.640184, -7.567927) " points="4.64018441 5.56792662 6.64018441 7.56792662 4.64018441 9.56792662"></polyline></g><g id="Group-6-Copy" transform="translate(12.153008, 22.259958) scale(1, -1) rotate(45.000000) translate(-12.153008, -22.259958) translate(7.653008, 18.259958)" stroke-linecap="round"><line x1="0.128679656" y1="3.75" x2="8.25" y2="3.75585" id="Stroke-3"></line><polyline id="Stroke-5" points="4.5 0 8.25 3.75 4.5 7.5"></polyline></g></g></g></svg> 