<?xml version="1.0" encoding="UTF-8"?>
<svg width="44px" height="46px" viewBox="0 0 44 46" version="1.1" xmlns="http://www.w3.org/2000/svg" xmlns:xlink="http://www.w3.org/1999/xlink">
    <title>Group 46</title>
    <g id="Page-1" stroke="none" stroke-width="1" fill="none" fill-rule="evenodd">
        <g id="Artboard" transform="translate(-407.000000, -619.000000)">
            <g id="Group-46" transform="translate(408.000000, 620.000000)">
                <g id="Group-45">
                    <g id="Group-25" stroke="#33BBED" stroke-width="2">
                        <ellipse id="Oval" cx="20.832" cy="21.6" rx="20.832" ry="21.6"></ellipse>
                    </g>
                    <path d="M25.6704102,28 L25.6704102,25.1787109 L24.2026367,25.1787109 L24.0620117,26.6464844 L19.5180664,26.6464844 L19.5004883,26.6025391 L22.8666992,22.9375 C23.6166992,22.1289062 24.1982422,21.3759766 24.6113281,20.6787109 C25.0244141,19.9814453 25.230957,19.2841797 25.230957,18.5869141 C25.230957,17.5498047 24.8896484,16.6958008 24.2070312,16.0249023 C23.5244141,15.3540039 22.605957,15.0185547 21.4516602,15.0185547 C20.1040039,15.0185547 19.0507812,15.3935547 18.2919922,16.1435547 C17.5332031,16.8935547 17.168457,17.8193359 17.1977539,18.9208984 L17.1977539,18.9208984 L17.215332,18.9736328 L18.8764648,18.9736328 C18.8764648,18.1474609 19.0844727,17.5087891 19.5004883,17.0576172 C19.9165039,16.6064453 20.5668945,16.3808594 21.4516602,16.3808594 C22.0668945,16.3808594 22.5620117,16.5991211 22.9370117,17.0356445 C23.3120117,17.472168 23.4995117,18.0097656 23.4995117,18.6484375 C23.4995117,19.1640625 23.3662109,19.6679688 23.0996094,20.1601562 C22.8330078,20.6523438 22.324707,21.3173828 21.574707,22.1552734 L21.574707,22.1552734 L17.3823242,26.8134766 L17.3823242,28 L25.6704102,28 Z" id="2" fill="#33BBED" fill-rule="nonzero"></path>
                </g>
            </g>
        </g>
    </g>
</svg>