<?xml version="1.0" encoding="UTF-8"?>
<svg width="44px" height="46px" viewBox="0 0 44 46" version="1.1" xmlns="http://www.w3.org/2000/svg" xmlns:xlink="http://www.w3.org/1999/xlink">
    <title>Group 45</title>
    <g id="Page-1" stroke="none" stroke-width="1" fill="none" fill-rule="evenodd">
        <g id="Artboard" transform="translate(-407.000000, -704.000000)">
            <g id="Group-45" transform="translate(408.000000, 705.000000)">
                <g id="Group-25" stroke="#33BBED" stroke-width="2">
                    <ellipse id="Oval" cx="20.832" cy="21.6" rx="20.832" ry="21.6"></ellipse>
                </g>
                <path d="M21.2978516,28.1845703 C22.4873047,28.1845703 23.4643555,27.8505859 24.2290039,27.1826172 C24.9936523,26.5146484 25.3759766,25.5976562 25.3759766,24.4316406 C25.3759766,23.7636719 25.2163086,23.1601562 24.8969727,22.6210938 C24.5776367,22.0820312 24.0341797,21.6865234 23.2666016,21.4345703 C23.9052734,21.1591797 24.3842773,20.7592773 24.7036133,20.2348633 C25.0229492,19.7104492 25.1826172,19.1845703 25.1826172,18.6572266 C25.1826172,17.4912109 24.8310547,16.5932617 24.1279297,15.9633789 C23.4248047,15.3334961 22.4814453,15.0185547 21.2978516,15.0185547 C20.1201172,15.0185547 19.1665039,15.3569336 18.4370117,16.0336914 C17.7075195,16.7104492 17.3574219,17.5322266 17.3867188,18.4990234 L17.3867188,18.4990234 L17.4042969,18.5517578 L19.0654297,18.5517578 C19.0654297,17.8955078 19.269043,17.3696289 19.6762695,16.9741211 C20.0834961,16.5786133 20.6240234,16.3808594 21.2978516,16.3808594 C22.0068359,16.3808594 22.5429688,16.5712891 22.90625,16.9521484 C23.2695312,17.3330078 23.4511719,17.8896484 23.4511719,18.6220703 C23.4511719,19.3076172 23.2915039,19.8422852 22.972168,20.2260742 C22.652832,20.6098633 22.109375,20.8017578 21.3417969,20.8017578 L21.3417969,20.8017578 L19.8300781,20.8017578 L19.8300781,22.1552734 L21.3417969,22.1552734 C22.1386719,22.1552734 22.7216797,22.3427734 23.0908203,22.7177734 C23.4599609,23.0927734 23.6445312,23.6757812 23.6445312,24.4667969 C23.6445312,25.2460938 23.4365234,25.8349609 23.0205078,26.2333984 C22.6044922,26.6318359 22.0302734,26.8310547 21.2978516,26.8310547 C20.5771484,26.8310547 20.0102539,26.6318359 19.597168,26.2333984 C19.184082,25.8349609 18.9775391,25.2988281 18.9775391,24.625 L18.9775391,24.625 L17.3251953,24.625 L17.2988281,24.6777344 C17.2695312,25.7558594 17.6357422,26.6098633 18.3974609,27.2397461 C19.1591797,27.8696289 20.1259766,28.1845703 21.2978516,28.1845703 Z" id="3" fill="#33BBED" fill-rule="nonzero"></path>
            </g>
        </g>
    </g>
</svg>