<?xml version="1.0" encoding="UTF-8"?> <svg xmlns="http://www.w3.org/2000/svg" xmlns:xlink="http://www.w3.org/1999/xlink" width="50px" height="50px" viewBox="0 0 50 50"><!-- Generator: Sketch 52.2 (67145) - http://www.bohemiancoding.com/sketch --><title>Special announcements icon</title><desc>Created with Sketch.</desc><g id="Home-Page" stroke="none" stroke-width="1" fill="none" fill-rule="evenodd" stroke-linecap="round" stroke-linejoin="round"><g id="MM-desktop-Products-Messaging/RCS-Copy" transform="translate(-1227.000000, -1730.000000)" stroke="#33BBED" stroke-width="2"><g id="Special-announcements-icon" transform="translate(1228.000000, 1731.000000)"><g id="Group-3"><path d="M14,8 L14,25.054 C14,30.536 17.098,35.546 22,38" id="Stroke-1"></path><path d="M46,17 C46,18.656 44.656,20 43,20 L42,20 L42,12 L43,12 C44.656,12 46,13.344 46,15 L46,17 Z" id="Stroke-3"></path><path d="M8,8 L6,8 C2.688,8 0,10.686 0,14 L0,18 C0,21.312 2.688,24 6,24 L8,24 C25.854,24 33.18,27.99 42,32 L42,0 C33.2,4 25.864,8 8,8 Z" id="Stroke-5"></path></g></g></g></g></svg> 