<?xml version="1.0" encoding="UTF-8"?> <svg xmlns="http://www.w3.org/2000/svg" xmlns:xlink="http://www.w3.org/1999/xlink" width="40px" height="40px" viewBox="0 0 40 40"><!-- Generator: Sketch 54.1 (76490) - https://sketchapp.com --><title>Proven and trusted expertise icon 3</title><desc>Created with Sketch.</desc><g id="Proven-and-trusted-expertise-icon-3" stroke="none" stroke-width="1" fill="none" fill-rule="evenodd"><rect id="Rectangle" x="0" y="0" width="40" height="40"></rect><g id="Group-23" transform="translate(3.000000, 3.000000)" stroke="#33BBED" stroke-linejoin="round" stroke-width="2"><path d="M16.154,10.9249808 C19.1006667,10.9249808 21.4873333,13.3359423 21.4873333,16.3095962 C21.4873333,19.28325 19.1006667,21.6942115 16.154,21.6942115 C13.2073333,21.6942115 10.8206667,19.28325 10.8206667,16.3095962 C10.8206667,13.3359423 13.2073333,10.9249808 16.154,10.9249808 Z" id="Stroke-1"></path><path d="M9.48733333,29.1466538 C10.934,29.1466538 12.1046667,30.3285769 12.1046667,31.7891538 C12.1046667,33.2510769 10.934,34.433 9.48733333,34.433 C8.042,34.433 6.86866667,33.2510769 6.86866667,31.7891538 C6.86866667,30.3285769 8.042,29.1466538 9.48733333,29.1466538 Z" id="Stroke-3"></path><path d="M3.89746667,0.983903846 C5.50946667,0.983903846 6.82013333,2.30313462 6.82013333,3.93467308 C6.82013333,5.56486538 5.50946667,6.88544231 3.89746667,6.88544231 C2.28146667,6.88544231 0.9748,5.56486538 0.9748,3.93467308 C0.9748,2.30313462 2.28146667,0.983903846 3.89746667,0.983903846 Z" id="Stroke-5"></path><path d="M31.4873333,29.7697885 C32.5926667,29.7697885 33.4873333,30.6730577 33.4873333,31.7890192 C33.4873333,32.9049808 32.5926667,33.80825 31.4873333,33.80825 C30.3833333,33.80825 29.4873333,32.9049808 29.4873333,31.7890192 C29.4873333,30.6730577 30.3833333,29.7697885 31.4873333,29.7697885 Z" id="Stroke-7"></path><path d="M32.2308,13.53975 C33.7481333,13.53975 34.9748,14.7795577 34.9748,16.3101346 C34.9748,17.8407115 33.7481333,19.0805192 32.2308,19.0805192 C30.7148,19.0805192 29.4868,17.8407115 29.4868,16.3101346 C29.4868,14.7795577 30.7148,13.53975 32.2308,13.53975 Z" id="Stroke-9"></path><path d="M30.0732,30.3627692 L19.9372,20.1050769" id="Stroke-11"></path><path d="M12.3897333,12.4945962 L6.23506667,6.29555769" id="Stroke-13"></path><path d="M10.3545333,29.97225 L14.0532,21.2585962" id="Stroke-15"></path><path d="M20.8597333,6.80238462 L18.8664,11.6714231" id="Stroke-17"></path><path d="M29.4873333,16.3095962 L21.4873333,16.3095962" id="Stroke-19"></path><path d="M21.3324,3.47119231 C22.2644,3.47119231 23.0230667,4.23446154 23.0230667,5.17946154 C23.0230667,6.12176923 22.2644,6.88503846 21.3324,6.88503846 C20.3990667,6.88503846 19.6404,6.12176923 19.6404,5.17946154 C19.6404,4.23446154 20.3990667,3.47119231 21.3324,3.47119231 Z" id="Stroke-21"></path></g></g></svg> 