<?xml version="1.0" encoding="UTF-8"?> <svg xmlns="http://www.w3.org/2000/svg" xmlns:xlink="http://www.w3.org/1999/xlink" width="40px" height="40px" viewBox="0 0 40 40" version="1.1"><title>Streamlines manual tasks icon</title><g id="Streamlines-manual-tasks-icon" stroke="none" stroke-width="1" fill="none" fill-rule="evenodd" stroke-linecap="round" stroke-linejoin="round"><g id="Group-13" transform="translate(6.000000, 2.000000)" stroke="#33BBED" stroke-width="2"><polyline id="Stroke-1" points="24.75 3.75 27.75 3.75 27.75 35.25 0.75 35.25 0.75 3.75 3.75 3.75"></polyline><path d="M17.25,3.75 C17.25,2.094 15.9075,0.75 14.25,0.75 C12.594,0.75 11.25,2.094 11.25,3.75 L6.75,3.75 L6.75,8.25 L21.75,8.25 L21.75,3.75 L17.25,3.75 Z" id="Stroke-3"></path><polyline id="Stroke-5" points="6.75 6.75 3.75 6.75 3.75 32.25 18.75 32.25 18.75 26.25 24.75 26.25 24.75 6.75 21.75 6.75"></polyline><line x1="24.75" y1="26.25" x2="18.75" y2="32.25" id="Stroke-7"></line></g><polyline id="Stroke-6" stroke="#33BBED" stroke-width="2" points="25.5 17 17 26.5 14 23.5"></polyline></g></svg> 