<?xml version="1.0" encoding="UTF-8"?> <svg xmlns="http://www.w3.org/2000/svg" xmlns:xlink="http://www.w3.org/1999/xlink" width="48px" height="48px" viewBox="0 0 48 48"><!-- Generator: Sketch 52.2 (67145) - http://www.bohemiancoding.com/sketch --><title>WhatApp icon Support</title><desc>Created with Sketch.</desc><g id="WhatApp-icon-Support" stroke="none" stroke-width="1" fill="none" fill-rule="evenodd" stroke-linecap="round" stroke-linejoin="round"><g id="Group-17" transform="translate(1.000000, 1.000000)" stroke="#33BBED"><path d="M32,11 C24,11 24,8 23,7 C22,8 22,11 14,11" id="Stroke-1" stroke-width="2"></path><path d="M35,14 L36,10 C36,10 37,0 23,0 C9,0 10,10 10,10 L11,16 C9,17 10,22 13,22 C13,28 20,32 23,32 C24.242,32 26.376,31.3 28.27,29.95" id="Stroke-3" stroke-width="2"></path><path d="M17.8008,29.9492 L5.1908,33.5092 C2.0688,34.6792 0.000800000002,37.6632 0.000800000002,40.9992 L0.000800000002,45.9992 L46.0008,45.9992 L46.0008,40.9992 C46.0008,37.6632 43.9308,34.6792 40.8088,33.5092 L28.2688,29.9492" id="Stroke-5" stroke-width="2"></path><path d="M38,20 L38,22 C37.626,23.87 35.906,26 34,26 L26,26" id="Stroke-7" stroke-width="2"></path><path d="M40,17 C40,18.656 38.656,20 37,20 L35,20 L35,14 L37,14 C38.656,14 40,15.344 40,17 Z" id="Stroke-9" stroke-width="2"></path><path d="M25.999,26 L21.999,26" id="Stroke-11" stroke-width="4"></path><path d="M17,17 C17,15.894 17.894,16 19,16 C20.106,16 21,15.894 21,17" id="Stroke-13" stroke-width="2"></path><path d="M25,17 C25,15.894 25.894,16 27,16 C28.106,16 29,15.894 29,17" id="Stroke-15" stroke-width="2"></path></g></g></svg> 