<?xml version="1.0" encoding="UTF-8"?>
<svg width="31px" height="31px" viewBox="0 0 31 31" version="1.1" xmlns="http://www.w3.org/2000/svg" xmlns:xlink="http://www.w3.org/1999/xlink">
    <title>Icon Copy</title>
    <g id="Page-1" stroke="none" stroke-width="1" fill="none" fill-rule="evenodd" stroke-linecap="round" stroke-linejoin="round">
        <g id="Icon-Copy" transform="translate(1.000000, 1.000000)" stroke="#FFFFFF" stroke-width="1.5">
            <path d="M10.6893337,8.28453753 C11.9620198,7.01181253 12.0664042,5.05253871 10.9201837,3.90427577 L7.80872711,0.796739013 C6.66451404,-0.349516471 4.70530008,-0.247136384 3.43261396,1.02759607 L1.53562913,2.92062396 C-0.108424395,4.56472771 -0.475777013,7.01381998 0.644347364,8.79443052 C5.46007923,16.4287731 12.070419,23.0413222 19.7065357,27.8551938 C21.4810696,28.9773598 23.9381167,28.6059811 25.5781554,26.9658922 L27.4731328,25.0688494 C28.745819,23.7961244 28.8502033,21.8348432 27.7039828,20.6905951 L24.5945336,17.5810509 C23.4463058,16.4368029 21.4890992,16.5371755 20.2164131,17.8099005 L19.0641704,18.9601709 C15.6194869,16.1999235 12.2992616,12.8816042 9.53909846,9.43480792 L10.6893337,8.28453753 Z" id="Stroke-1"></path>
        </g>
    </g>
</svg>