<?xml version="1.0" encoding="UTF-8"?>
<svg width="36px" height="27px" viewBox="0 0 36 27" version="1.1" xmlns="http://www.w3.org/2000/svg" xmlns:xlink="http://www.w3.org/1999/xlink">
    <title>Group 7 Copy</title>
    <g id="Page-1" stroke="none" stroke-width="1" fill="none" fill-rule="evenodd" stroke-linecap="round" stroke-linejoin="round">
        <g id="Group-7-Copy" stroke="#FFFFFF" stroke-width="1.5">
            <polygon id="Stroke-1" points="30.75 18.75 18 18.75 5.25 18.75 5.25 3.75 30.75 3.75"></polygon>
            <g id="Group-6">
                <path d="M2.25,21.75 L2.25,3 C2.25,1.758 3.258,0.75 4.5,0.75 L31.5,0.75 C32.742,0.75 33.75,1.758 33.75,3 L33.75,21.75" id="Stroke-2"></path>
                <path d="M21.75,21.75 L21.75,23.25 L14.25,23.25 L14.25,21.75 L0.75,21.75 L0.75,24.75 C0.75,25.5795 1.422,26.25 2.25,26.25 L33.75,26.25 C34.5795,26.25 35.25,25.5795 35.25,24.75 L35.25,21.75 L21.75,21.75 Z" id="Stroke-4"></path>
            </g>
        </g>
    </g>
</svg>