<?xml version="1.0" encoding="UTF-8"?>
<svg width="38px" height="35px" viewBox="0 0 38 35" version="1.1" xmlns="http://www.w3.org/2000/svg" xmlns:xlink="http://www.w3.org/1999/xlink">
    <title>Group 132</title>
    <g id="Page-1" stroke="none" stroke-width="1" fill="none" fill-rule="evenodd" stroke-linecap="round" stroke-linejoin="round">
        <g id="Group-132" transform="translate(1.750000, 1.750000)" stroke="#FFFFFF" stroke-width="1.5">
            <path d="M21,0 L6,0 C2.6865,0 0,2.6865 0,6 L0,12 C0,15.315 2.6865,18 6,18 L7.5,18 L7.5,24 L14.25,18 L21,18 C24.3135,18 27,15.315 27,12 L27,6 C27,2.6865 24.3135,0 21,0 Z" id="Stroke-1"></path>
            <path d="M16.5,23.25 C16.5,25.3215 18.1785,27 20.25,27 L24,27 L28.5,31.5 L28.5,27 L30.75,27 C32.8215,27 34.5,25.3215 34.5,23.25 L34.5,20.25 C34.5,18.1785 32.8215,16.5 30.75,16.5" id="Stroke-3"></path>
        </g>
    </g>
</svg>