<?xml version="1.0" encoding="UTF-8"?>
<svg width="36px" height="32px" viewBox="0 0 36 32" version="1.1" xmlns="http://www.w3.org/2000/svg" xmlns:xlink="http://www.w3.org/1999/xlink">
    <title>Group 3 Copy</title>
    <g id="Page-1" stroke="none" stroke-width="1" fill="none" fill-rule="evenodd">
        <g id="Group-3-Copy" fill="#FFFFFF">
            <path d="M19.2210205,26.9196123 C18.5626898,27.5861478 17.9255426,28.2311563 17.2860645,28.878646 C18.4540992,29.6475862 19.2092291,29.6510064 19.7355234,28.9020509 C20.2102646,28.2265289 20.0017213,27.4489377 19.2210205,26.9196123 M11.3174877,18.5579077 C11.2926709,18.0722401 10.9866428,17.5874443 10.37774,17.3251623 C9.7211918,17.0422921 9.11804766,17.1854708 8.61437637,17.6672488 C7.77307324,18.4718663 6.93794004,19.2832571 6.11871152,20.1093347 C5.46147773,20.7721817 5.45928398,21.6850383 6.08052656,22.3034229 C6.70348301,22.923484 7.66633359,22.9252276 8.34982383,22.276799 C9.18625957,21.4833139 10.0026088,20.6695759 10.8240996,19.8612029 C11.1421248,19.5482216 11.3285936,19.1750851 11.3174877,18.5579077 M7.96612324,15.2971882 C7.94672227,14.825805 7.66242598,14.3436246 7.0718959,14.067796 C6.48116016,13.7919003 5.88267773,13.8373688 5.41040449,14.2730747 C4.46366426,15.1464985 3.54996738,16.0552643 2.64573105,16.9712728 C2.31385781,17.3074578 2.20204512,17.7487299 2.30234063,18.2174307 C2.42950957,18.8115386 2.78421152,19.221023 3.38077441,19.4070548 C4.01072344,19.6035483 4.55443066,19.4285819 5.01134766,18.9879803 C5.83297559,18.1956353 6.64623984,17.3949745 7.46018965,16.5950514 C7.77800918,16.2827407 7.97044219,15.9126891 7.96612324,15.2971882 M14.6768045,21.9268662 C14.6510965,21.3715876 14.3523352,20.8833716 13.746723,20.6130421 C13.0921629,20.3207832 12.4854539,20.4572556 11.9808229,20.9364181 C11.1284139,21.74573 10.2851912,22.5650342 9.46068398,23.4014394 C8.80948301,24.0621405 8.81976621,24.9886108 9.44532773,25.5951253 C10.0671873,26.1980854 11.0229082,26.2007009 11.689534,25.5686355 C12.5342648,24.7677065 13.3582236,23.9455856 14.1876668,23.1292992 C14.4973283,22.8245666 14.6740623,22.4586729 14.6768045,21.9268662 M13.7119658,29.3173698 C14.3730387,29.3227348 14.7508436,29.138849 15.070377,28.8266725 C15.8853551,28.0303707 16.7047207,27.238294 17.5120893,26.4346824 C18.1926316,25.7572827 18.2069596,24.8158575 17.5632996,24.1939186 C16.925741,23.5778141 15.9857877,23.5914949 15.2958533,24.2475687 C14.6008459,24.908538 13.9214689,25.5852671 13.2381158,26.2577712 C13.0373877,26.4553377 12.8247311,26.6463991 12.6551268,26.8679741 C12.2735514,27.3664506 12.2189818,27.9159619 12.5070486,28.4727159 C12.7942242,29.0278604 13.2767121,29.302683 13.7119658,29.3173698 M30.3936521,17.0895042 C30.333941,17.1249803 30.3564955,17.1169328 30.371509,17.1018437 C30.5786127,16.8935472 30.787773,16.6871955 30.9903521,16.474741 C33.0123727,14.3542876 33.8348232,11.8533207 33.3910002,8.98786847 C32.520767,3.36875734 26.3801865,0.0294404968 21.0281221,2.23788013 C19.8630352,2.7185851 18.9077256,3.47847181 17.9526902,4.2705486 C15.7836199,6.06936965 13.5657387,7.81192516 11.3750736,9.58600011 C11.2306975,9.70295734 11.0294895,9.9304338 11.0655492,10.0401483 C11.1164854,10.19513 11.3472404,10.3324743 11.5308299,10.3999393 C12.3166723,10.6885098 13.1365863,10.7227118 13.9619162,10.625538 C15.4344709,10.4521811 16.6945746,9.81890864 17.8526004,8.93515724 C18.1731621,8.69057981 18.5804455,8.47282743 18.9720984,8.42246339 C19.3653967,8.37189816 19.8043523,8.50005486 20.1965537,8.62821156 C22.5644326,9.40211436 24.7953393,9.36865011 26.7841107,7.66525918 C27.1595848,7.34369384 27.6204094,7.38587624 27.9162914,7.71629384 C28.2171779,8.05227765 28.1785816,8.51226026 27.8038617,8.84797581 C27.0529137,9.52054698 26.1989965,10.0309607 25.2221607,10.3197324 C24.7357652,10.4635817 24.232848,10.5541834 23.7370605,10.668391 C25.9449328,12.7982333 28.1528736,14.9280755 30.3936521,17.0895042 M16.287634,22.1802959 C16.3426834,22.1880081 16.3762066,22.1957874 16.4100727,22.1969945 C18.1766584,22.2621123 19.3489436,23.2944745 19.6095199,25.0074554 C19.6232309,25.0974535 19.6720418,25.2022724 19.7398424,25.2613545 C20.3878213,25.8256195 21.0275736,26.4005475 21.7009178,26.9347014 C22.4790135,27.5519459 23.6391645,27.1733103 23.8965188,26.2342322 C24.0537146,25.6607125 23.8509299,25.1895975 23.4282902,24.7795095 C22.1466604,23.5359671 20.8734627,22.2841089 19.597043,21.0354026 C19.5162855,20.9564028 19.4322375,20.8801526 19.3565531,20.7965925 C19.0470973,20.4548414 19.0461375,20.0151787 19.3511373,19.710312 C19.6555201,19.4061159 20.1122314,19.3974648 20.460832,19.6932781 C20.5555746,19.7736862 20.641885,19.8637513 20.7307318,19.9506645 C21.9747937,21.1677842 23.2182387,22.3854405 24.4631232,23.6017555 C24.5761014,23.7120735 24.6905877,23.8231293 24.8172082,23.9174864 C25.64624,24.5355356 26.8383375,24.0816557 27.0246006,23.079807 C27.1238678,22.545519 26.9144332,22.1256398 26.534366,21.7558565 C25.2057762,20.4633583 23.8841789,19.1640198 22.55744,17.8697109 C22.3275076,17.6453864 22.1651016,17.3979923 22.2404432,17.0666359 C22.307284,16.7728344 22.4895023,16.5714454 22.7896348,16.4787648 C23.1405662,16.3704586 23.4125912,16.5053216 23.6531496,16.7406444 C24.9619957,18.020736 26.2703619,19.301297 27.5796193,20.5809862 C27.6764871,20.6756786 27.7730121,20.7720476 27.879409,20.8558759 C28.6838297,21.489819 29.856252,21.1040747 30.1086703,20.1249603 C30.2606561,19.5354797 30.0124881,19.0876354 29.6002002,18.683583 C26.9446658,16.0812846 24.291051,13.4769742 21.6431947,10.8671647 C21.4107258,10.6380117 21.1714014,10.4806827 20.8368545,10.4148272 C20.4029719,10.3294565 19.9721742,10.2010986 19.5617373,10.0388741 C19.2535154,9.91708834 19.0358543,9.95906955 18.7885775,10.1638118 C17.9894355,10.8255188 17.0982932,11.3452542 16.1135736,11.6967295 C14.3530207,12.3251064 12.5704617,12.4639931 10.790782,11.7947751 C9.2181375,11.2034167 8.96421094,9.50311069 10.2663387,8.45827484 C11.8648283,7.17556782 13.4618098,5.89105011 15.059134,4.60686771 C15.477866,4.27028035 15.8952955,3.93208348 16.3176609,3.59106998 C13.1306906,0.915807343 7.97400703,0.745602376 4.50788203,3.87608618 C1.02427559,7.0223297 0.96525,11.8055051 2.78750215,14.6643852 C3.28945957,14.156654 3.75590566,13.6337666 4.27582441,13.1679496 C6.05824629,11.5710541 8.91601699,12.443606 9.47137852,14.7459334 C9.53876777,15.0254504 9.55282148,15.317307 9.59505117,15.6287459 C10.5092279,15.6225091 11.3213268,15.8991424 11.9796574,16.5375787 C12.6470373,17.1848002 12.9314021,17.9889483 12.9170057,18.8942268 C14.7280148,18.888057 16.2683701,20.1259662 16.287634,22.1802959 M9.80332031,0 L11.3800781,0 C11.4569279,0.0179727862 11.532818,0.0450660907 11.6106961,0.0525100432 C13.5405105,0.238072354 15.2870783,0.892938985 16.8529359,2.00973305 C17.0903408,2.17899914 17.3189707,2.36006825 17.5582951,2.54066793 C18.7431258,1.54472073 20.0601299,0.819572462 21.5446131,0.422561663 C22.2559365,0.23237203 22.9939963,0.137880778 23.7199219,0 L25.3652344,0 C25.755242,0.0668614471 26.1487459,0.118633801 26.5347773,0.202864471 C30.5894443,1.087823 33.2933098,3.45902365 34.6125076,7.30815065 C34.8564252,8.01968521 34.9415701,8.78332743 35.1,9.52289417 L35.1,11.1323974 C35.0792965,11.2184388 35.0474871,11.3034742 35.0394662,11.3906556 C34.9530187,12.3309408 34.7179447,13.2353475 34.3757883,14.1165505 C33.7759348,15.6614054 32.801567,16.955446 31.5954158,18.0920906 C31.4133346,18.2637039 31.3789887,18.3962867 31.4861396,18.6352309 C32.235648,20.3057611 31.2738258,22.2006159 29.4661072,22.6346452 C29.2041598,22.69755 28.9314492,22.7175347 28.6544883,22.7587782 C28.6326879,23.5946469 28.3629252,24.3232153 27.7555992,24.911757 C27.1506727,25.4979515 26.4028096,25.7519848 25.5441621,25.7686834 C25.5329191,26.7914556 25.1489443,27.621691 24.3201867,28.2195544 C23.480666,28.8251971 22.5439348,28.916067 21.6499816,28.6594183 C21.3408,29.1711732 21.0971566,29.6757525 20.758565,30.1095136 C20.3250938,30.6649934 19.6623756,30.8844224 18.9896484,31.05 L18.1669922,31.05 C17.4147416,30.8483427 16.7026641,30.5815675 16.2532881,29.8878716 C15.1986428,30.8600786 13.9979074,31.1709139 12.6767215,30.6214698 C11.3577979,30.0729645 10.7493064,29.0132407 10.7338816,27.6027794 C9.801675,27.6124364 8.98841074,27.3435152 8.32918887,26.7027317 C7.6628373,26.0551079 7.371,25.2556542 7.3864248,24.3283792 C6.44290664,24.3274403 5.63019082,24.0595251 4.97096895,23.4169979 C4.30468594,22.7674963 4.0225834,21.9655613 4.02889043,21.0545154 C2.62722129,21.0256785 1.56071602,20.4700646 0.980332031,19.2272598 C0.400153711,17.9849245 0.662855273,16.8330567 1.56071602,15.7860078 C0.991163672,14.8679203 0.557486719,13.8883364 0.310689844,12.8385379 C0.183520898,12.2974766 0.10207793,11.7461546 0,11.19946 L0,9.52289417 C0.0224173828,9.42706166 0.0555978516,9.33236922 0.0657439453,9.23532959 C0.498598242,5.10380184 3.57526406,1.51668855 7.66400273,0.414380022 C8.36291777,0.22600108 9.08952891,0.135600648 9.80332031,0" id="Fill-1"></path>
        </g>
    </g>
</svg>